<svg xmlns="http://www.w3.org/2000/svg" viewBox="50 100 740 420" width="100%" height="100%">
  <path d="M 179 505 L 178 500 L 173 499 L 134 501 L 111 500 L 109 501 L 108 503 L 110 505 L 111 507 L 113 506 L 113 504 L 120 505 L 119 507 L 125 504 L 134 505 L 136 507 L 137 505 L 142 505 L 144 507 L 146 506 L 150 505 Z M 650 499 L 651 507 L 679 507 L 683 505 L 694 505 L 695 507 L 697 507 L 698 505 L 700 504 L 702 508 L 704 506 L 708 506 L 706 505 L 712 504 L 714 503 L 713 501 L 704 501 L 682 499 L 677 500 L 675 500 L 656 498 L 653 498 Z M 443 489 L 443 492 L 444 499 L 444 515 L 450 515 L 452 516 L 455 514 L 455 516 L 457 516 L 459 513 L 462 511 L 464 507 L 465 504 L 465 502 L 466 500 L 464 498 L 464 495 L 463 493 L 459 489 L 456 488 Z M 451 494 L 453 494 L 456 496 L 457 505 L 454 508 L 450 507 L 451 497 Z M 330 488 L 329 492 L 330 494 L 335 494 L 337 496 L 336 508 L 337 515 L 339 516 L 343 515 L 343 498 L 345 498 L 345 495 L 349 495 L 351 493 L 350 488 Z M 593 488 L 593 491 L 591 491 L 591 495 L 592 493 L 593 515 L 595 516 L 600 516 L 600 509 L 603 509 L 603 511 L 605 513 L 605 516 L 606 514 L 607 516 L 609 515 L 613 514 L 613 512 L 612 510 L 610 508 L 609 506 L 609 504 L 613 500 L 613 493 L 611 490 L 607 488 L 603 487 L 597 487 Z M 543 489 L 543 494 L 546 496 L 548 494 L 550 496 L 548 514 L 550 515 L 556 514 L 557 494 L 562 495 L 563 493 L 562 488 L 560 487 L 550 488 L 547 488 Z M 539 488 L 537 487 L 534 487 L 532 491 L 531 494 L 529 492 L 527 491 L 526 488 L 519 488 L 518 509 L 518 515 L 524 514 L 525 511 L 525 501 L 526 504 L 528 506 L 529 508 L 527 510 L 530 511 L 531 514 L 532 516 L 540 516 L 538 512 L 538 508 Z M 468 488 L 468 491 L 467 493 L 468 491 L 469 494 L 468 496 L 469 494 L 471 497 L 471 501 L 473 505 L 474 509 L 474 511 L 473 513 L 474 511 L 475 514 L 476 516 L 479 515 L 481 516 L 484 513 L 484 511 L 486 508 L 488 500 L 491 491 L 491 488 L 485 487 L 484 490 L 482 490 L 483 494 L 482 497 L 481 499 L 479 501 L 478 497 L 477 492 L 475 488 L 472 487 Z M 423 487 L 423 489 L 422 492 L 420 495 L 420 497 L 418 501 L 416 507 L 415 511 L 416 516 L 421 515 L 422 513 L 423 510 L 430 510 L 430 513 L 431 515 L 440 515 L 439 513 L 438 509 L 436 507 L 435 504 L 435 501 L 433 498 L 433 495 L 431 489 L 429 487 Z M 301 487 L 297 489 L 297 514 L 299 516 L 312 516 L 312 514 L 316 514 L 315 511 L 313 508 L 307 509 L 305 505 L 309 505 L 313 504 L 312 498 L 310 494 L 314 494 L 314 488 L 312 487 Z M 271 488 L 271 515 L 278 514 L 279 510 L 279 506 L 283 514 L 285 516 L 288 515 L 292 514 L 289 510 L 288 507 L 287 503 L 290 502 L 290 493 L 286 489 L 284 488 Z M 280 494 L 280 496 L 281 499 L 278 498 Z M 251 487 L 249 490 L 249 493 L 248 496 L 246 500 L 246 502 L 243 511 L 241 512 L 241 516 L 243 516 L 248 515 L 250 513 L 251 509 L 257 511 L 255 511 L 256 513 L 259 515 L 262 516 L 266 514 L 266 512 L 263 503 L 261 499 L 260 496 L 260 493 L 259 490 L 258 488 L 253 487 Z M 208 488 L 198 487 L 197 489 L 193 492 L 193 499 L 194 501 L 196 503 L 198 504 L 200 504 L 202 505 L 204 507 L 202 509 L 200 509 L 196 507 L 193 506 L 191 506 L 191 512 L 193 515 L 195 514 L 195 516 L 206 515 L 208 514 L 210 512 L 211 510 L 211 503 L 209 500 L 207 499 L 203 498 L 201 495 L 205 494 L 208 496 L 210 496 L 211 494 L 210 490 Z M 622 486 L 619 489 L 619 511 L 617 511 L 616 513 L 618 512 L 620 516 L 622 516 L 625 515 L 630 515 L 633 516 L 636 514 L 637 512 L 636 509 L 634 508 L 630 509 L 626 507 L 627 504 L 635 504 L 636 500 L 634 495 L 636 488 L 623 488 Z M 571 486 L 569 488 L 567 488 L 568 511 L 567 515 L 569 513 L 572 515 L 581 515 L 583 514 L 585 512 L 586 510 L 587 503 L 587 488 L 583 487 L 580 488 L 580 504 L 579 507 L 576 509 L 574 507 L 573 505 L 573 499 L 574 489 Z M 495 489 L 495 502 L 496 504 L 495 516 L 498 515 L 511 516 L 512 514 L 512 508 L 509 508 L 504 509 L 502 507 L 503 504 L 511 504 L 510 498 L 507 495 L 509 494 L 512 494 L 512 488 L 507 487 L 504 488 L 503 486 L 501 488 Z M 381 489 L 380 514 L 382 515 L 389 516 L 398 516 L 398 514 L 397 508 L 394 509 L 391 509 L 391 507 L 389 505 L 392 504 L 398 504 L 398 501 L 396 498 L 398 496 L 396 498 L 395 494 L 398 494 L 398 489 L 395 486 L 393 488 L 391 486 L 390 488 Z M 358 486 L 354 489 L 354 495 L 352 495 L 354 497 L 355 516 L 358 516 L 362 514 L 362 509 L 361 505 L 367 505 L 367 514 L 368 516 L 374 516 L 375 493 L 374 491 L 375 489 L 373 486 L 371 487 L 368 487 L 367 489 L 367 492 L 365 493 L 364 496 L 363 493 L 361 492 L 361 488 L 359 488 Z M 217 488 L 217 515 L 219 516 L 222 515 L 224 514 L 224 505 L 231 505 L 230 513 L 232 516 L 237 514 L 238 501 L 237 499 L 238 490 L 237 488 L 235 486 L 234 488 L 231 488 L 231 494 L 229 495 L 229 498 L 224 497 L 225 493 L 224 488 L 222 486 L 220 488 Z M 225 398 L 224 400 L 224 417 L 222 450 L 220 450 L 222 453 L 221 465 L 244 465 L 244 454 L 246 454 L 244 452 L 244 448 L 246 448 L 245 446 L 246 444 L 245 438 L 245 425 L 247 413 L 247 405 L 246 399 L 243 398 Z M 726 400 L 722 399 L 719 398 L 714 397 L 712 397 L 705 398 L 701 399 L 698 400 L 696 401 L 694 403 L 690 405 L 686 410 L 685 413 L 682 415 L 682 418 L 681 420 L 680 424 L 679 422 L 679 443 L 681 444 L 681 447 L 682 450 L 684 452 L 685 455 L 687 457 L 687 460 L 690 460 L 692 461 L 694 463 L 696 464 L 699 465 L 703 466 L 721 466 L 725 465 L 728 464 L 736 460 L 735 452 L 736 446 L 733 445 L 731 446 L 728 446 L 728 444 L 727 448 L 724 449 L 721 448 L 719 450 L 713 450 L 709 449 L 707 448 L 705 446 L 703 442 L 704 437 L 715 438 L 712 439 L 718 439 L 719 437 L 737 437 L 739 436 L 739 420 L 737 419 L 737 415 L 735 412 L 735 410 L 733 407 Z M 708 413 L 713 414 L 713 417 L 716 415 L 717 417 L 718 420 L 717 426 L 704 427 L 703 423 L 703 420 L 704 418 L 706 418 L 705 416 Z M 787 398 L 784 398 L 781 396 L 778 399 L 776 399 L 774 400 L 767 407 L 765 399 L 745 399 L 745 402 L 744 406 L 744 425 L 742 444 L 742 465 L 760 467 L 761 465 L 764 465 L 765 461 L 764 457 L 766 448 L 766 437 L 765 434 L 766 429 L 767 426 L 769 423 L 772 420 L 776 419 L 782 420 L 787 420 L 787 416 L 789 409 L 789 400 Z M 175 400 L 173 399 L 170 399 L 167 396 L 165 396 L 163 398 L 160 399 L 158 399 L 155 400 L 149 404 L 148 406 L 146 399 L 144 399 L 143 397 L 138 398 L 135 398 L 125 397 L 124 410 L 124 412 L 125 415 L 123 462 L 121 464 L 121 471 L 120 468 L 120 473 L 121 471 L 120 485 L 119 487 L 121 488 L 121 491 L 122 493 L 143 492 L 144 488 L 143 485 L 145 474 L 144 469 L 146 468 L 145 466 L 148 464 L 150 467 L 151 465 L 162 466 L 168 464 L 172 462 L 175 460 L 180 454 L 182 452 L 183 447 L 185 444 L 185 441 L 187 439 L 186 436 L 187 431 L 187 419 L 186 413 L 184 410 L 182 406 L 178 402 Z M 157 415 L 159 416 L 160 420 L 163 421 L 163 437 L 160 440 L 162 440 L 162 442 L 161 444 L 159 445 L 157 447 L 156 449 L 154 450 L 151 449 L 149 448 L 147 446 L 146 444 L 146 438 L 147 436 L 146 429 L 147 425 L 148 422 L 151 420 L 154 415 Z M 465 372 L 464 375 L 464 395 L 462 415 L 460 466 L 472 466 L 470 467 L 474 467 L 475 465 L 483 465 L 483 456 L 485 444 L 484 432 L 486 432 L 485 424 L 486 421 L 492 418 L 492 416 L 495 417 L 495 419 L 498 420 L 497 450 L 495 461 L 496 465 L 503 465 L 503 467 L 505 465 L 511 465 L 512 467 L 515 467 L 512 466 L 518 465 L 519 463 L 518 459 L 519 456 L 522 458 L 523 455 L 525 460 L 528 463 L 532 465 L 534 465 L 536 466 L 538 468 L 540 468 L 541 466 L 545 466 L 551 464 L 557 460 L 558 458 L 559 461 L 563 465 L 566 466 L 575 466 L 579 465 L 583 462 L 584 465 L 600 466 L 598 467 L 601 467 L 602 465 L 609 464 L 610 458 L 609 443 L 611 443 L 610 432 L 612 430 L 612 425 L 618 419 L 631 420 L 633 418 L 633 416 L 632 413 L 635 408 L 636 412 L 636 415 L 641 416 L 641 420 L 642 416 L 643 425 L 641 455 L 640 453 L 640 456 L 643 457 L 644 460 L 648 464 L 654 466 L 665 466 L 670 464 L 673 465 L 674 463 L 676 462 L 678 454 L 676 446 L 673 448 L 665 447 L 664 445 L 663 439 L 665 432 L 665 421 L 664 419 L 666 417 L 668 416 L 669 414 L 680 415 L 681 413 L 680 408 L 682 402 L 681 399 L 675 399 L 674 397 L 671 398 L 665 398 L 667 396 L 667 381 L 669 382 L 667 381 L 666 379 L 660 381 L 658 381 L 655 380 L 650 383 L 648 382 L 647 384 L 645 384 L 642 386 L 644 392 L 643 399 L 642 397 L 641 399 L 637 398 L 635 401 L 633 399 L 624 397 L 623 399 L 620 399 L 617 401 L 611 407 L 611 402 L 610 399 L 589 400 L 588 409 L 588 432 L 586 439 L 584 437 L 585 440 L 587 440 L 587 457 L 585 464 L 583 462 L 583 459 L 581 455 L 579 455 L 579 440 L 581 429 L 580 413 L 577 407 L 571 401 L 562 398 L 551 397 L 548 399 L 543 399 L 539 400 L 531 404 L 530 420 L 533 420 L 538 417 L 549 414 L 552 414 L 553 416 L 555 415 L 558 419 L 556 419 L 557 423 L 554 422 L 554 424 L 551 424 L 549 422 L 547 424 L 542 424 L 540 426 L 537 426 L 531 429 L 526 434 L 524 438 L 522 446 L 521 453 L 523 453 L 522 456 L 518 454 L 520 450 L 519 436 L 521 410 L 517 403 L 514 400 L 511 398 L 509 399 L 504 397 L 499 399 L 497 398 L 495 400 L 493 400 L 490 402 L 486 403 L 486 388 L 487 371 Z M 556 436 L 557 440 L 557 444 L 556 446 L 552 450 L 545 450 L 542 447 L 542 443 L 543 441 L 545 440 L 547 438 L 549 437 L 550 436 Z M 246 372 L 244 372 L 241 371 L 235 371 L 234 372 L 226 379 L 225 382 L 225 385 L 226 389 L 230 395 L 241 394 L 247 391 L 249 389 L 250 386 L 250 379 L 248 375 Z M 195 371 L 195 386 L 194 410 L 192 426 L 191 452 L 192 457 L 191 465 L 194 466 L 192 467 L 196 467 L 196 465 L 207 465 L 208 467 L 211 467 L 213 465 L 214 463 L 215 456 L 214 441 L 215 422 L 215 419 L 217 416 L 216 400 L 217 385 L 218 381 L 218 378 L 219 371 Z M 358 371 L 354 370 L 346 370 L 330 371 L 326 379 L 326 381 L 322 388 L 322 390 L 320 393 L 320 395 L 318 398 L 318 400 L 315 405 L 315 407 L 313 410 L 313 412 L 311 413 L 311 417 L 308 422 L 308 424 L 307 427 L 305 430 L 305 432 L 302 437 L 302 439 L 300 442 L 300 444 L 296 454 L 294 457 L 293 460 L 292 453 L 292 448 L 294 448 L 292 445 L 290 445 L 288 447 L 286 448 L 281 448 L 279 447 L 277 443 L 277 431 L 278 416 L 280 414 L 281 416 L 282 414 L 286 414 L 292 416 L 294 415 L 295 399 L 293 398 L 279 398 L 279 396 L 281 383 L 281 379 L 277 379 L 272 380 L 263 380 L 260 381 L 260 383 L 258 384 L 257 387 L 256 384 L 256 391 L 257 388 L 258 395 L 254 399 L 250 400 L 250 405 L 249 410 L 250 415 L 256 414 L 255 434 L 256 437 L 256 451 L 255 453 L 257 459 L 262 464 L 264 465 L 269 466 L 280 466 L 289 463 L 291 462 L 292 460 L 293 465 L 295 465 L 295 467 L 298 467 L 299 465 L 302 465 L 302 467 L 307 467 L 309 465 L 310 467 L 313 467 L 313 465 L 317 465 L 319 461 L 319 458 L 322 455 L 321 453 L 323 452 L 322 450 L 324 445 L 328 444 L 342 444 L 351 443 L 353 445 L 354 447 L 355 451 L 355 454 L 357 463 L 358 465 L 361 467 L 361 465 L 367 465 L 367 467 L 371 467 L 372 465 L 385 464 L 384 461 L 382 457 L 382 452 L 380 450 L 378 442 L 378 439 L 376 435 L 375 432 L 375 428 L 373 424 L 373 420 L 371 416 L 370 413 L 371 411 L 369 409 L 364 392 L 364 389 L 360 375 Z M 343 401 L 342 405 L 344 405 L 345 409 L 346 414 L 348 422 L 347 426 L 343 427 L 333 427 L 333 423 L 335 423 L 334 419 L 339 404 Z M 117 373 L 115 373 L 112 372 L 108 372 L 106 370 L 104 371 L 102 369 L 98 369 L 90 370 L 84 370 L 80 371 L 77 372 L 71 375 L 68 378 L 66 379 L 63 382 L 63 384 L 62 386 L 60 386 L 60 389 L 59 395 L 59 404 L 60 409 L 62 412 L 62 414 L 64 419 L 66 418 L 69 421 L 72 422 L 74 424 L 78 426 L 81 427 L 78 428 L 85 428 L 89 430 L 89 432 L 94 435 L 95 438 L 94 441 L 93 443 L 91 443 L 91 445 L 88 444 L 87 447 L 77 447 L 73 446 L 72 444 L 70 445 L 68 444 L 67 442 L 64 442 L 60 439 L 58 437 L 56 438 L 55 440 L 55 459 L 56 462 L 60 462 L 63 464 L 67 465 L 65 468 L 64 466 L 65 468 L 67 465 L 69 465 L 78 467 L 85 467 L 93 466 L 97 465 L 103 463 L 105 462 L 108 460 L 114 455 L 117 448 L 117 446 L 118 442 L 120 442 L 120 439 L 122 439 L 119 438 L 120 429 L 118 426 L 118 423 L 117 421 L 113 415 L 111 413 L 107 410 L 104 409 L 102 407 L 99 406 L 97 406 L 86 399 L 84 397 L 84 393 L 86 392 L 88 389 L 92 388 L 97 388 L 103 389 L 109 391 L 116 395 L 118 395 L 118 388 L 120 379 L 119 375 L 117 375 Z M 458 372 L 454 372 L 450 370 L 448 371 L 439 370 L 432 368 L 429 370 L 427 370 L 424 369 L 421 370 L 417 371 L 414 372 L 410 374 L 406 375 L 404 378 L 401 380 L 399 380 L 396 386 L 394 386 L 394 388 L 392 389 L 391 391 L 391 393 L 390 395 L 390 397 L 388 400 L 387 403 L 386 407 L 385 413 L 385 431 L 387 439 L 385 440 L 387 444 L 388 442 L 389 445 L 390 447 L 392 449 L 392 452 L 394 452 L 394 455 L 399 457 L 400 460 L 404 461 L 408 463 L 410 466 L 410 464 L 412 464 L 417 466 L 417 468 L 420 468 L 418 467 L 432 466 L 432 468 L 434 468 L 434 466 L 438 465 L 441 465 L 450 462 L 453 460 L 453 454 L 455 442 L 455 440 L 452 440 L 449 443 L 447 443 L 445 445 L 442 446 L 440 444 L 436 446 L 430 446 L 428 447 L 423 445 L 421 444 L 416 439 L 414 435 L 414 430 L 412 427 L 412 416 L 413 408 L 414 405 L 417 399 L 420 395 L 422 393 L 425 391 L 429 389 L 434 388 L 439 388 L 447 389 L 452 390 L 456 393 L 458 391 L 458 386 L 459 384 L 458 380 Z M 577 164 L 580 165 L 582 163 L 586 163 L 590 164 L 592 165 L 592 169 L 594 169 L 596 168 L 596 171 L 598 172 L 599 174 L 601 173 L 605 172 L 606 170 L 608 167 L 611 167 L 613 168 L 613 166 L 615 166 L 618 167 L 618 169 L 622 169 L 620 170 L 622 171 L 624 169 L 624 166 L 620 162 L 617 160 L 612 160 L 610 159 L 608 161 L 605 161 L 602 163 L 601 165 L 599 162 L 597 160 L 592 157 L 584 157 L 578 161 Z M 527 142 L 530 141 L 528 141 Z M 590 141 L 588 142 L 587 140 L 584 137 L 580 135 L 578 133 L 575 132 L 574 134 L 570 134 L 566 136 L 561 140 L 559 143 L 558 141 L 556 140 L 553 138 L 550 137 L 541 137 L 537 139 L 532 144 L 532 146 L 538 144 L 544 143 L 548 144 L 551 146 L 553 147 L 551 148 L 556 151 L 560 152 L 565 148 L 570 145 L 570 143 L 574 142 L 578 142 L 585 145 L 583 146 L 587 146 L 587 148 L 589 146 L 590 144 L 588 142 Z M 582 127 L 584 128 L 589 126 L 597 126 L 599 127 L 601 132 L 602 130 L 606 134 L 607 136 L 607 139 L 610 137 L 614 133 L 619 130 L 623 129 L 627 130 L 626 132 L 628 132 L 631 131 L 633 133 L 636 133 L 635 131 L 634 128 L 631 125 L 628 124 L 625 122 L 622 122 L 618 123 L 612 127 L 610 128 L 609 126 L 607 126 L 605 123 L 601 120 L 602 117 L 602 119 L 600 121 L 598 119 L 593 120 L 592 118 L 590 118 L 590 121 L 587 121 L 585 125 L 583 124 Z M 586 117 L 584 118 L 585 120 Z M 201 117 L 201 120 L 205 120 L 205 124 L 212 124 L 213 122 L 214 124 L 218 123 L 223 126 L 242 130 L 241 132 L 248 131 L 265 137 L 264 139 L 269 137 L 271 140 L 269 144 L 265 141 L 257 141 L 247 138 L 246 136 L 236 135 L 232 132 L 218 132 L 225 135 L 227 140 L 229 139 L 227 135 L 236 140 L 237 138 L 240 140 L 239 142 L 246 142 L 244 145 L 248 143 L 254 144 L 257 148 L 268 149 L 309 164 L 315 169 L 317 168 L 318 170 L 319 168 L 323 172 L 324 170 L 334 174 L 335 178 L 339 176 L 345 179 L 339 184 L 329 185 L 314 191 L 311 189 L 310 192 L 304 192 L 306 193 L 299 196 L 299 204 L 305 209 L 303 211 L 305 210 L 307 212 L 305 214 L 303 213 L 303 218 L 306 219 L 308 224 L 307 227 L 306 225 L 307 228 L 308 226 L 317 242 L 315 244 L 319 246 L 314 251 L 311 251 L 309 262 L 320 260 L 318 262 L 307 265 L 304 260 L 301 265 L 299 252 L 294 243 L 289 239 L 277 236 L 264 243 L 253 243 L 243 246 L 238 245 L 235 247 L 234 245 L 232 247 L 222 248 L 215 254 L 214 259 L 215 286 L 217 288 L 232 287 L 233 289 L 238 287 L 239 282 L 242 280 L 249 280 L 242 284 L 255 282 L 256 284 L 257 282 L 266 280 L 278 280 L 285 276 L 295 276 L 295 274 L 299 275 L 299 273 L 320 267 L 325 268 L 327 265 L 334 265 L 336 263 L 336 265 L 339 264 L 337 263 L 381 249 L 383 249 L 383 251 L 388 249 L 388 247 L 393 248 L 393 246 L 404 244 L 405 242 L 409 243 L 406 251 L 391 253 L 390 255 L 387 254 L 378 259 L 384 260 L 384 258 L 387 260 L 388 257 L 424 252 L 427 250 L 427 252 L 435 252 L 437 248 L 441 250 L 441 248 L 444 247 L 448 250 L 449 248 L 455 248 L 457 245 L 507 242 L 502 249 L 498 250 L 495 248 L 494 251 L 480 253 L 478 255 L 475 253 L 473 256 L 452 261 L 447 260 L 443 263 L 443 261 L 441 263 L 439 260 L 438 264 L 432 261 L 434 262 L 430 266 L 413 270 L 407 268 L 403 272 L 402 270 L 399 273 L 393 274 L 393 272 L 389 275 L 375 276 L 374 278 L 361 279 L 359 281 L 342 284 L 328 284 L 326 287 L 320 284 L 318 288 L 316 288 L 317 290 L 325 290 L 327 293 L 323 294 L 322 292 L 312 295 L 304 293 L 304 296 L 302 294 L 298 296 L 298 294 L 289 297 L 271 296 L 270 298 L 260 296 L 259 298 L 245 297 L 245 295 L 243 297 L 233 297 L 229 294 L 226 296 L 223 294 L 217 295 L 216 293 L 204 292 L 195 289 L 193 286 L 192 288 L 177 281 L 175 286 L 177 287 L 178 284 L 184 296 L 185 294 L 186 297 L 206 308 L 209 312 L 237 318 L 243 323 L 243 319 L 244 321 L 249 319 L 250 321 L 259 321 L 256 322 L 259 323 L 260 321 L 264 321 L 264 323 L 269 324 L 270 322 L 268 321 L 289 319 L 298 321 L 304 318 L 304 321 L 305 319 L 329 315 L 340 316 L 338 317 L 336 315 L 342 314 L 348 316 L 346 319 L 343 317 L 340 320 L 334 319 L 327 322 L 326 320 L 323 322 L 320 319 L 321 321 L 319 323 L 310 324 L 308 322 L 307 324 L 290 326 L 289 324 L 287 326 L 267 327 L 249 325 L 251 323 L 249 325 L 241 325 L 224 321 L 225 319 L 223 318 L 218 320 L 216 317 L 214 319 L 195 310 L 184 301 L 187 308 L 197 319 L 208 327 L 225 335 L 224 337 L 226 335 L 249 342 L 249 344 L 253 343 L 284 348 L 319 348 L 353 343 L 361 344 L 358 343 L 375 339 L 377 344 L 374 345 L 375 347 L 379 345 L 405 348 L 442 348 L 455 346 L 460 348 L 464 345 L 464 347 L 468 348 L 467 346 L 471 344 L 473 346 L 473 344 L 477 343 L 481 344 L 483 342 L 501 340 L 502 338 L 508 339 L 506 338 L 515 335 L 517 337 L 519 334 L 554 324 L 560 324 L 565 321 L 568 322 L 566 323 L 571 323 L 570 321 L 573 319 L 578 322 L 578 318 L 592 315 L 600 316 L 603 314 L 603 316 L 604 314 L 612 315 L 615 312 L 616 314 L 617 312 L 624 314 L 625 312 L 635 311 L 637 313 L 634 315 L 638 312 L 647 312 L 648 314 L 652 314 L 650 313 L 653 312 L 660 314 L 658 315 L 664 314 L 673 317 L 671 318 L 676 317 L 681 319 L 680 321 L 684 318 L 674 310 L 654 300 L 652 301 L 642 297 L 648 296 L 658 300 L 651 291 L 619 278 L 594 278 L 586 281 L 585 279 L 584 282 L 570 290 L 569 293 L 598 294 L 596 296 L 587 295 L 582 298 L 577 297 L 556 302 L 552 301 L 550 303 L 543 303 L 511 312 L 504 312 L 503 314 L 493 317 L 487 315 L 485 319 L 475 321 L 470 319 L 469 323 L 466 322 L 465 319 L 476 316 L 465 313 L 466 310 L 459 312 L 440 308 L 419 307 L 415 309 L 402 309 L 400 307 L 399 310 L 393 308 L 387 312 L 387 308 L 384 307 L 403 304 L 408 306 L 409 304 L 429 303 L 429 305 L 431 303 L 466 306 L 466 308 L 471 307 L 481 309 L 481 311 L 487 310 L 496 313 L 499 309 L 493 309 L 462 296 L 462 293 L 459 296 L 458 294 L 433 291 L 430 288 L 422 290 L 422 288 L 418 289 L 415 286 L 412 286 L 410 289 L 410 284 L 447 284 L 457 282 L 462 284 L 466 281 L 490 280 L 492 278 L 494 280 L 493 283 L 489 282 L 489 284 L 479 284 L 477 286 L 471 283 L 469 287 L 464 285 L 464 288 L 459 288 L 459 291 L 510 302 L 530 302 L 546 297 L 547 299 L 549 296 L 569 288 L 569 286 L 572 286 L 603 254 L 607 252 L 627 224 L 632 220 L 636 212 L 634 209 L 607 204 L 606 206 L 570 205 L 569 199 L 561 186 L 555 180 L 548 177 L 552 178 L 553 175 L 549 169 L 535 156 L 513 152 L 520 150 L 527 151 L 503 136 L 478 126 L 478 124 L 471 125 L 464 121 L 463 123 L 450 120 L 450 117 L 447 121 L 441 120 L 442 118 L 437 121 L 433 120 L 435 117 L 433 117 L 431 121 L 430 119 L 426 119 L 428 116 L 425 117 L 424 120 L 418 121 L 418 117 L 415 119 L 416 121 L 404 126 L 400 125 L 400 127 L 379 135 L 373 142 L 371 153 L 372 151 L 374 158 L 380 164 L 386 166 L 386 168 L 386 166 L 394 169 L 392 170 L 394 171 L 389 173 L 382 170 L 380 167 L 378 168 L 370 161 L 366 145 L 368 141 L 363 132 L 361 124 L 362 117 L 359 116 L 358 109 L 353 111 L 355 119 L 356 117 L 356 126 L 358 126 L 357 132 L 359 132 L 359 146 L 362 150 L 362 159 L 361 157 L 357 159 L 350 155 L 342 119 L 337 117 L 337 120 L 340 123 L 343 149 L 341 153 L 316 145 L 315 143 L 305 142 L 304 140 L 298 140 L 280 133 L 248 126 L 247 124 L 242 125 L 239 124 L 238 121 L 233 123 L 234 117 L 232 120 L 230 118 L 229 122 L 226 117 L 220 120 L 217 119 L 218 117 L 215 119 L 210 116 Z M 384 339 L 383 341 L 379 341 L 381 340 Z M 395 337 L 396 337 L 397 336 L 399 339 L 395 340 Z M 385 337 L 388 336 L 392 336 L 393 340 L 391 341 L 386 341 L 386 339 Z M 398 335 L 402 335 L 400 337 Z M 408 333 L 408 337 L 406 335 L 404 338 L 402 334 L 405 333 Z M 410 331 L 413 332 L 414 334 L 412 336 L 409 335 L 408 333 Z M 465 324 L 461 324 L 456 325 L 452 327 L 450 326 L 447 328 L 446 326 L 444 328 L 441 327 L 438 330 L 438 328 L 435 331 L 430 332 L 423 332 L 421 334 L 419 333 L 417 335 L 414 334 L 414 330 L 418 330 L 426 328 L 430 326 L 434 326 L 438 324 L 454 320 L 459 319 L 463 318 L 464 320 Z M 363 315 L 357 317 L 349 317 L 348 315 L 349 312 L 352 314 L 353 312 L 356 311 L 361 312 L 360 314 Z M 384 308 L 383 312 L 378 312 L 378 310 L 376 310 L 374 312 L 374 314 L 369 315 L 365 315 L 363 313 L 365 312 L 360 311 L 367 309 L 370 310 L 369 312 L 370 310 L 373 308 L 378 307 Z M 634 294 L 637 294 L 643 296 L 640 298 L 638 298 L 634 297 Z M 626 293 L 630 293 L 629 296 L 625 295 Z M 599 291 L 609 291 L 621 292 L 623 293 L 623 296 L 621 295 L 617 296 L 614 294 L 610 294 L 606 293 L 605 295 L 603 295 L 601 293 L 599 294 Z M 341 289 L 339 290 L 337 293 L 327 292 L 329 291 L 330 289 L 331 291 L 332 289 L 335 289 L 336 291 L 336 289 Z M 357 289 L 354 289 L 352 291 L 347 292 L 344 292 L 344 290 L 342 292 L 339 291 L 342 288 L 345 287 L 347 287 L 348 289 L 350 289 L 351 287 L 355 287 Z M 361 287 L 368 285 L 377 286 L 375 288 L 373 289 L 368 288 L 367 290 L 366 288 L 363 290 Z M 393 285 L 401 286 L 402 284 L 408 287 L 406 286 L 408 287 L 404 288 L 401 288 L 393 287 Z M 380 285 L 393 286 L 391 286 L 389 289 L 387 286 L 386 289 L 385 287 L 383 288 L 382 286 Z M 250 278 L 251 278 L 252 277 L 257 278 L 255 280 L 252 280 Z M 492 278 L 499 276 L 503 276 L 506 278 L 504 280 L 502 281 L 497 282 L 494 281 Z M 256 277 L 263 277 L 258 279 Z M 504 276 L 510 277 L 505 279 L 507 277 Z M 521 276 L 517 277 L 512 277 L 509 275 L 513 274 L 519 272 Z M 274 274 L 270 276 L 262 276 L 264 274 L 267 274 L 272 272 Z M 529 273 L 530 271 L 533 273 Z M 520 275 L 520 273 L 523 272 L 525 271 L 525 273 L 529 272 L 529 274 L 523 275 Z M 278 272 L 280 270 L 282 272 Z M 534 271 L 536 269 L 539 270 L 537 271 Z M 546 269 L 547 267 L 549 269 Z M 433 264 L 434 262 L 436 264 Z M 304 262 L 304 266 L 301 265 Z M 328 258 L 325 260 L 321 261 L 321 258 L 324 257 Z M 337 253 L 337 256 L 334 255 Z M 348 250 L 352 250 L 350 252 Z M 354 249 L 355 247 L 357 247 L 359 249 Z M 367 245 L 366 247 L 363 246 Z M 509 246 L 509 241 L 519 241 L 527 243 L 520 245 L 518 245 L 516 243 L 515 246 L 514 244 L 512 245 L 511 247 Z M 387 238 L 387 241 L 385 242 L 382 241 L 381 243 L 378 242 L 378 244 L 372 246 L 369 246 L 367 244 L 370 242 L 372 242 L 374 243 L 372 242 L 377 240 L 380 241 L 380 239 L 383 239 Z M 402 236 L 397 237 L 394 239 L 391 240 L 388 238 L 390 236 L 398 234 L 400 234 Z M 406 232 L 408 235 L 404 236 L 402 233 Z M 422 231 L 419 232 L 417 231 L 415 233 L 413 231 L 416 229 L 420 228 Z M 433 228 L 429 229 L 426 230 L 426 226 L 429 225 Z M 437 224 L 440 223 L 442 225 L 439 226 Z M 440 223 L 444 223 L 442 225 Z M 456 220 L 454 222 L 451 222 L 448 224 L 446 222 L 449 220 L 453 219 Z M 548 221 L 544 223 L 545 220 L 543 220 L 542 223 L 540 222 L 538 224 L 537 221 L 533 224 L 529 223 L 528 225 L 526 224 L 524 226 L 522 226 L 521 224 L 519 223 L 520 225 L 518 225 L 517 227 L 510 226 L 509 228 L 504 229 L 496 228 L 493 231 L 492 229 L 488 230 L 488 232 L 483 233 L 477 233 L 473 235 L 463 237 L 460 237 L 456 236 L 447 237 L 449 237 L 451 239 L 447 239 L 446 241 L 444 240 L 438 243 L 434 242 L 434 244 L 429 245 L 427 245 L 423 44 L 421 245 L 420 247 L 418 248 L 416 244 L 413 245 L 416 247 L 414 249 L 411 249 L 408 246 L 409 243 L 411 243 L 413 240 L 416 240 L 418 241 L 418 239 L 421 238 L 426 237 L 438 234 L 443 234 L 448 232 L 453 232 L 458 230 L 463 229 L 469 228 L 475 228 L 481 226 L 488 226 L 495 224 L 501 223 L 508 224 L 504 225 L 507 225 L 512 224 L 510 223 L 516 221 L 525 221 L 533 219 L 542 218 L 547 219 Z M 616 219 L 617 217 L 620 218 Z M 564 220 L 564 217 L 568 218 Z M 548 218 L 553 217 L 561 218 L 558 219 L 558 222 L 554 219 L 550 223 L 549 221 Z M 322 217 L 325 217 L 325 219 L 328 217 L 328 219 L 329 222 L 327 222 L 328 225 L 331 225 L 331 228 L 333 233 L 332 237 L 331 235 L 329 234 L 327 231 L 327 228 L 324 226 L 322 223 L 320 219 Z M 596 220 L 596 216 L 608 217 L 606 218 L 610 218 L 611 216 L 617 217 L 614 218 L 614 220 Z M 568 218 L 570 216 L 592 217 L 591 220 L 588 221 L 570 221 Z M 313 216 L 314 220 L 317 221 L 318 224 L 320 226 L 322 230 L 323 233 L 323 238 L 321 236 L 316 230 L 316 228 L 313 226 L 312 222 L 310 222 L 310 220 L 311 218 Z M 472 215 L 474 217 L 471 219 Z M 467 217 L 466 219 L 463 219 L 461 221 L 458 221 L 456 219 L 459 217 L 462 217 L 464 215 Z M 483 214 L 482 217 L 478 216 L 476 216 L 475 218 L 474 216 L 472 215 L 479 213 Z M 483 214 L 484 212 L 489 213 L 487 216 Z M 318 212 L 319 214 L 322 214 L 322 217 L 320 219 L 317 216 Z M 336 211 L 336 213 L 340 213 L 341 215 L 339 216 L 340 219 L 338 218 L 340 219 L 340 230 L 336 228 L 334 224 L 334 221 L 332 218 L 332 214 L 334 214 Z M 309 211 L 312 212 L 310 216 L 310 220 L 307 217 L 307 215 L 309 214 Z M 497 211 L 495 212 L 494 215 L 492 215 L 490 213 L 488 212 L 494 210 Z M 497 211 L 500 209 L 503 209 L 503 211 L 506 212 L 501 211 L 498 213 Z M 504 210 L 507 208 L 512 209 L 511 212 L 507 212 Z M 347 208 L 351 209 L 352 212 L 352 215 L 351 224 L 349 224 L 347 226 L 346 224 L 346 212 L 345 210 Z M 513 209 L 515 207 L 516 209 L 518 210 L 515 211 Z M 366 205 L 366 209 L 368 214 L 369 218 L 369 220 L 367 221 L 365 223 L 364 225 L 360 226 L 357 225 L 359 224 L 359 222 L 358 216 L 359 212 L 360 209 L 361 207 Z M 551 206 L 552 204 L 563 204 L 567 206 L 565 205 L 560 205 L 560 207 L 555 206 Z M 552 205 L 550 207 L 545 208 L 533 209 L 526 208 L 526 210 L 524 209 L 521 207 L 529 206 L 539 204 L 549 204 Z M 405 212 L 402 214 L 400 212 L 398 213 L 396 215 L 392 213 L 394 214 L 390 217 L 385 213 L 387 214 L 387 218 L 382 219 L 379 219 L 376 217 L 375 215 L 374 212 L 375 206 L 374 202 L 376 203 L 379 200 L 384 199 L 388 198 L 393 199 L 393 197 L 395 197 L 397 199 L 400 203 L 402 205 L 404 208 L 404 210 Z M 405 196 L 410 194 L 415 194 L 418 196 L 419 194 L 421 192 L 424 192 L 424 194 L 426 193 L 426 191 L 428 191 L 428 193 L 430 191 L 431 196 L 435 196 L 437 198 L 440 202 L 440 205 L 441 203 L 442 205 L 445 209 L 443 211 L 440 210 L 441 208 L 440 210 L 436 209 L 427 212 L 421 213 L 414 212 L 413 210 L 413 208 L 411 206 L 409 201 L 407 198 Z M 459 170 L 462 170 L 463 172 L 469 171 L 471 172 L 473 174 L 473 177 L 472 179 L 462 189 L 459 191 L 457 192 L 453 192 L 451 195 L 453 196 L 452 198 L 456 199 L 459 203 L 460 206 L 462 208 L 465 212 L 463 215 L 462 213 L 459 212 L 456 208 L 452 203 L 450 198 L 447 197 L 447 192 L 446 195 L 442 191 L 441 189 L 444 187 L 448 188 L 450 188 L 451 185 L 453 185 L 456 184 L 458 183 L 461 181 L 463 179 L 462 174 L 458 172 Z M 449 170 L 450 168 L 454 171 L 452 170 Z M 396 169 L 401 169 L 409 171 L 406 172 L 403 171 L 402 173 L 399 173 L 399 171 Z M 437 168 L 440 167 L 442 169 L 439 169 Z M 421 168 L 425 168 L 423 170 Z M 352 167 L 355 169 L 356 167 L 358 167 L 366 173 L 365 179 L 362 177 L 363 179 L 360 180 L 360 178 L 358 180 L 356 179 L 354 177 L 352 174 L 351 171 Z M 270 144 L 272 140 L 276 139 L 279 140 L 279 142 L 283 141 L 287 143 L 284 144 L 286 144 L 288 143 L 289 145 L 293 144 L 296 145 L 296 147 L 298 146 L 298 148 L 300 146 L 306 148 L 309 150 L 312 150 L 318 152 L 321 154 L 323 154 L 323 156 L 327 155 L 330 157 L 332 157 L 338 159 L 342 161 L 344 163 L 345 165 L 343 170 L 340 168 L 336 168 L 334 166 L 328 164 L 326 164 L 323 163 L 319 162 L 318 160 L 314 160 L 311 158 L 308 158 L 306 157 L 288 151 L 286 148 L 285 150 L 273 146 Z" fill="#ffffff" fill-rule="evenodd" />
</svg>
